<?xml version="1.0" encoding="UTF-8"?>
<!DOCTYPE svg PUBLIC "-//W3C//DTD SVG 1.1//EN" "http://www.w3.org/Graphics/SVG/1.1/DTD/svg11.dtd">
<!-- Creator: CorelDRAW 2018 -->
<svg xmlns="http://www.w3.org/2000/svg" xml:space="preserve" width="256px" height="256px" version="1.1" style="shape-rendering:geometricPrecision; text-rendering:geometricPrecision; image-rendering:optimizeQuality; fill-rule:evenodd; clip-rule:evenodd"
viewBox="0 0 256 256"
 xmlns:xlink="http://www.w3.org/1999/xlink">
 <defs>
  <style type="text/css">
   <![CDATA[
    .str0 {stroke:#2B2A29;stroke-width:2.36;stroke-miterlimit:22.9256}
    .fil2 {fill:none}
    .fil1 {fill:#39AAE1}
    .fil0 {fill:#39AAE1;fill-rule:nonzero}
   ]]>
  </style>
 </defs>
 <g id="Слой_x0020_1">
  <metadata id="CorelCorpID_0Corel-Layer"/>
  <path class="fil0" d="M105.29 57.46c-1.23,0.41 -2.74,-0.14 -3.14,-1.5l-4.25 -11.49c-0.4,-1.23 0.14,-2.74 1.51,-3.15 1.23,-0.41 2.74,0.14 3.14,1.51l4.24 11.62c0.41,1.23 -0.27,2.6 -1.5,3.01zm7.79 -17.91c-1.36,-3.29 -3.28,-7.53 -8.61,-7.53l-23.52 0c-6.98,0 -7.25,4.93 -6.43,7.8l66.19 176.68c1.37,3.28 3.28,7.52 8.61,7.52l23.8 0c6.97,0 7.25,-4.92 6.43,-7.79l-66.47 -176.68z"/>
  <path class="fil0" d="M196.37 196.67l-19.15 -49.64c-0.68,-1.64 -2.46,-2.46 -4.1,-1.78l-5.88 2.19c-1.64,0.69 -2.46,2.46 -1.78,4.1l19.15 49.65c0.68,1.64 2.46,2.46 4.1,1.77l5.88 -2.18c1.64,-0.55 2.46,-2.47 1.78,-4.11z"/>
  <rect class="fil2 str0" x="1903.45" y="822.97" width="20.98" height="10.49"/>
 </g>
</svg>
