<?xml version="1.0" encoding="utf-8"?>
<!-- Generator: Adobe Illustrator 22.1.0, SVG Export Plug-In . SVG Version: 6.00 Build 0)  -->
<svg version="1.1" id="Layer_1" xmlns="http://www.w3.org/2000/svg" xmlns:xlink="http://www.w3.org/1999/xlink" x="0px" y="0px"
	 viewBox="0 0 1767.5 158" style="enable-background:new 0 0 1767.5 158;" xml:space="preserve">
<style type="text/css">
	.st0{fill:#4D4D4D;}
	.st1{fill:#29ABE2;}
</style>
<g>
	<g>
		<path class="st0" d="M112.5,9.2v125.7c0,4.8-2.3,6.1-6.1,6.1H85.7c-3.8,0-6.1-1.3-6.1-6.1V32.5H32.9v102.5c0,4.8-2.1,6.1-6.1,6.1
			H6.1c-3.8,0-6.1-1.3-6.1-6.1V9.2c0-4.8,2.3-6.1,6.1-6.1h100.4C110.2,3.1,112.5,4.4,112.5,9.2z"/>
		<path class="st0" d="M251.8,96.8c0,33.1-31.4,47.4-56.4,47.4c-24.9,0-55.9-14.2-55.9-47.4V47.4c0-33.1,31-47.4,55.9-47.4
			c24.9,0,56.4,14.3,56.4,47.4V96.8z M219,50.3c0-13.4-9.6-21.2-23.5-21.2c-13.6,0-23.3,7.8-23.3,21.2v43.6
			c0,13.4,9.6,21.2,23.3,21.2c13.8,0,23.5-7.8,23.5-21.2V50.3z"/>
		<path class="st0" d="M291.9,9.2c0-4.8,2.3-6.1,6.1-6.1h83.6c3.8,0,6.1,1.3,6.1,6.1v125.7c0,4.8-2.3,6.1-6.1,6.1h-20.7
			c-3.8,0-6.1-1.3-6.1-6.1V32.5h-33.5l-4.6,68.3c-2.3,33.9-9.6,41.7-42.3,41.1c-5.4,0-6.3-1.3-6.3-5.9v-15.7c0-3.6,0.8-5.7,4.6-5.7
			c9.8,0,11.1-5.9,11.7-14L291.9,9.2z"/>
		<path class="st0" d="M445,3.1c3.8,0,6.1,1.3,6.1,6.1v72.7l44.4-71.7c2.7-4.2,4.2-7.1,9.4-7.1h19.7c4.8,0,6.1,2.3,6.1,6.1v125.7
			c0,4.8-2.3,6.1-6.1,6.1h-20.7c-3.8,0-6.1-1.3-6.1-6.1V62l-44.4,71.9c-2.7,4.2-4.2,7.1-9.4,7.1h-19.1c-4.8,0-6.1-2.3-6.1-6.1V9.2
			c0-4.8,2.3-6.1,6.1-6.1H445z"/>
		<path class="st0" d="M660.8,9.2v17.4c0,3.8-1.3,6.1-6.1,6.1h-32.1v102.3c0,4.8-2.3,6.1-6.1,6.1h-20.7c-3.8,0-6.1-1.3-6.1-6.1V32.7
			h-32.3c-4.8,0-6.1-2.3-6.1-6.1V9.2c0-3.8,1.3-6.1,6.1-6.1h97.2C659.6,3.1,660.8,5.4,660.8,9.2z"/>
		<path class="st0" d="M787.8,117.8v17.2c0,3.8-1.3,6.1-6.1,6.1h-93.9c-4.8,0-6.1-2.3-6.1-6.1V9.2c0-3.8,1.3-6.1,6.1-6.1h90.3
			c4.8,0,6.1,2.3,6.1,6.1v17.4c0,3.8-1.3,6.1-6.1,6.1h-63.3v22.8H771c4.8,0,6.1,2.3,6.1,6.1v16.3c0,3.8-1.3,6.1-6.1,6.1h-56.2v27.7
			h66.8C786.5,111.7,787.8,114,787.8,117.8z"/>
		<path class="st0" d="M915.6,134.5c1.7,2.5,0.6,6.5-2.5,6.5h-23.9c-4.6,0-6.3-0.4-9.2-5.9l-20.7-37.3l-21,37.3
			c-2.7,5.4-4.6,5.9-9.2,5.9h-23.9c-3.1,0-4.2-4-2.5-6.5L840,70.4L802.1,9c-1.3-2.3-0.4-5.9,3.1-5.9h24.7c4,0,5.7,1.7,8.4,6.1
			l21,33.7L880,9.2c2.9-4.4,4.4-6.1,8.6-6.1h24.5c3.6,0,4.6,3.6,3.1,5.9l-37.7,61.4L915.6,134.5z"/>
	</g>
	<g>
		<path class="st1" d="M1193.7,9V135c0,4.8-2.3,6.1-6.1,6.1h-20.1c-3.8,0-6.1-1.3-6.1-6.1v-71l-21,36.7c-1,1.7-2.9,4.4-6.1,4.4
			h-10.5c-3.1,0-4.8-2.7-5.9-4.4l-21.2-36.7v71c0,4.8-2.3,6.1-6.1,6.1H1070c-3.8,0-6.1-1.3-6.1-6.1V9c0-3.8,1.3-6.1,6.1-6.1h20.7
			c7.1,0,8,4.6,9.6,7.1l28.7,51.5l28.9-51.5c1.5-2.5,2.5-7.1,9.4-7.1h20.1C1192.4,3,1193.7,5.3,1193.7,9z"/>
		<path class="st1" d="M1330.7,117.8V135c0,3.8-1.3,6.1-6.1,6.1h-93.9c-4.8,0-6.1-2.3-6.1-6.1V9.2c0-3.8,1.3-6.1,6.1-6.1h90.3
			c4.8,0,6.1,2.3,6.1,6.1v17.4c0,3.8-1.3,6.1-6.1,6.1h-63.3v22.8h56.2c4.8,0,6.1,2.3,6.1,6.1V78c0,3.8-1.3,6.1-6.1,6.1h-56.2v27.7
			h66.8C1329.4,111.7,1330.7,114,1330.7,117.8z"/>
		<path class="st1" d="M1453.9,138.7h-76.7v13.2c0,4.8-2.3,6.1-6.1,6.1h-17.4c-3.8,0-6.1-1.3-6.1-6.1v-36c0-3.8,1.3-6.1,6.1-6.1
			c11.5,0,13.4-6.1,14-13.8l6.7-86.7c0-4.8,2.3-6.1,6.1-6.1h80.5c3.8,0,6.1,1.3,6.1,6.1v100.6h10.1c4.8,0,6.1,2.3,6.1,6.1v36
			c0,4.8-2.3,6.1-6.1,6.1H1460c-3.8,0-6.1-1.3-6.1-6.1V138.7z M1391.7,111.3h43.6V31.5h-30l-5.2,66.2
			C1399.6,105.4,1396.7,109.6,1391.7,111.3z"/>
		<path class="st1" d="M1531.8,3.2c3.8,0,6.1,1.3,6.1,6.1V82l44.4-71.7c2.7-4.2,4.2-7.1,9.4-7.1h19.7c4.8,0,6.1,2.3,6.1,6.1V135
			c0,4.8-2.3,6.1-6.1,6.1h-20.7c-3.8,0-6.1-1.3-6.1-6.1V62l-44.4,71.9c-2.7,4.2-4.2,7.1-9.4,7.1h-19.1c-4.8,0-6.1-2.3-6.1-6.1V9.2
			c0-4.8,2.3-6.1,6.1-6.1H1531.8z"/>
		<path class="st1" d="M1763.3,141h-22c-4.6,0-6.3-1.3-8-6.3l-5.9-16.6h-51.3l-5.9,16.6c-1.7,5-3.4,6.3-8,6.3h-22
			c-4.6,0-4.6-3.4-3.6-5.9l46.5-125.5c1.7-4.4,4-6.5,8.6-6.5h20.1c4.6,0,6.7,2.1,8.6,6.5l46.3,125.5C1768,137.7,1768,141,1763.3,141
			z M1717.7,88.9L1702,42.6l-15.7,46.3H1717.7z"/>
	</g>
	<g>
		<path class="st1" d="M974.1,6.3c-1-2.4-2.4-5.5-6.3-5.5h-17.2c-5.1,0-5.3,3.6-4.7,5.7l48.4,129.2c1,2.4,2.4,5.5,6.3,5.5h17.4
			c5.1,0,5.3-3.6,4.7-5.7L974.1,6.3z M968.4,19.4c-0.9,0.3-2-0.1-2.3-1.1L963,9.9c-0.3-0.9,0.1-2,1.1-2.3c0.9-0.3,2,0.1,2.3,1.1
			l3.1,8.5C969.8,18.1,969.3,19.1,968.4,19.4z"/>
		<path class="st1" d="M1035,121.2l-14-36.3c-0.5-1.2-1.8-1.8-3-1.3l-4.3,1.6c-1.2,0.5-1.8,1.8-1.3,3l14,36.3c0.5,1.2,1.8,1.8,3,1.3
			l4.3-1.6C1034.9,123.8,1035.5,122.4,1035,121.2z"/>
	</g>
</g>
</svg>
