<svg width="93" height="93" viewBox="0 0 93 93" fill="none" xmlns="http://www.w3.org/2000/svg">
<path d="M91.112 0.597656H14.8894C11.099 0.597656 7.46383 2.10339 4.78361 4.78361C2.10339 7.46383 0.597656 11.099 0.597656 14.8894V91.112C0.597656 94.9024 2.10339 98.5375 4.78361 101.218C7.46383 103.898 11.099 105.404 14.8894 105.404H91.112C94.9024 105.404 98.5375 103.898 101.218 101.218C103.898 98.5375 105.404 94.9024 105.404 91.112V14.8894C105.404 11.099 103.898 7.46383 101.218 4.78361C98.5375 2.10339 94.9024 0.597656 91.112 0.597656ZM33.945 95.8759H14.8894C13.6259 95.8759 12.4142 95.374 11.5208 94.4805C10.6274 93.5871 10.1255 92.3754 10.1255 91.112V85.4905C11.6531 86.0452 13.2642 86.3352 14.8894 86.348H33.945V95.8759ZM33.945 76.8202H14.8894C13.6259 76.8202 12.4142 76.3183 11.5208 75.4249C10.6274 74.5315 10.1255 73.3198 10.1255 72.0563V66.4349C11.6531 66.9895 13.2642 67.2795 14.8894 67.2924H33.945V76.8202ZM33.945 57.7646H14.8894C13.6259 57.7646 12.4142 57.2627 11.5208 56.3693C10.6274 55.4759 10.1255 54.2641 10.1255 53.0007V14.8894C10.1255 13.6259 10.6274 12.4142 11.5208 11.5208C12.4142 10.6274 13.6259 10.1255 14.8894 10.1255H33.945V57.7646ZM62.5285 95.8759H43.4728V67.2924H62.5285V95.8759ZM62.5285 57.7646H43.4728V10.1255H62.5285V57.7646ZM95.8759 91.112C95.8759 92.3754 95.374 93.5871 94.4805 94.4805C93.5871 95.374 92.3754 95.8759 91.112 95.8759H72.0563V86.348H91.112C92.7371 86.3352 94.3482 86.0452 95.8759 85.4905V91.112ZM95.8759 72.0563C95.8759 73.3198 95.374 74.5315 94.4805 75.4249C93.5871 76.3183 92.3754 76.8202 91.112 76.8202H72.0563V67.2924H91.112C92.7371 67.2795 94.3482 66.9895 95.8759 66.4349V72.0563ZM95.8759 53.0007C95.8759 54.2641 95.374 55.4759 94.4805 56.3693C93.5871 57.2627 92.3754 57.7646 91.112 57.7646H72.0563V10.1255H91.112C92.3754 10.1255 93.5871 10.6274 94.4805 11.5208C95.374 12.4142 95.8759 13.6259 95.8759 14.8894V53.0007ZM81.5841 29.1811C80.6419 29.1811 79.7209 29.4605 78.9374 29.984C78.154 30.5074 77.5434 31.2515 77.1829 32.122C76.8223 32.9925 76.7279 33.9503 76.9118 34.8744C77.0956 35.7985 77.5493 36.6474 78.2155 37.3136C78.8818 37.9799 79.7306 38.4336 80.6547 38.6174C81.5788 38.8012 82.5367 38.7069 83.4072 38.3463C84.2777 37.9857 85.0217 37.3751 85.5452 36.5917C86.0686 35.8083 86.348 34.8872 86.348 33.945C86.348 32.6816 85.8461 31.4698 84.9527 30.5764C84.0593 29.683 82.8476 29.1811 81.5841 29.1811ZM24.4172 38.7089C25.3594 38.7089 26.2805 38.4295 27.0639 37.9061C27.8473 37.3826 28.4579 36.6386 28.8185 35.7681C29.1791 34.8976 29.2734 33.9397 29.0896 33.0156C28.9058 32.0915 28.452 31.2427 27.7858 30.5764C27.1196 29.9102 26.2707 29.4565 25.3466 29.2727C24.4225 29.0888 23.4646 29.1832 22.5941 29.5437C21.7236 29.9043 20.9796 30.5149 20.4562 31.2983C19.9327 32.0818 19.6533 33.0028 19.6533 33.945C19.6533 35.2085 20.1552 36.4202 21.0486 37.3136C21.942 38.207 23.1537 38.7089 24.4172 38.7089Z" fill="#F3A917"/>
</svg>
